<svg xmlns="http://www.w3.org/2000/svg" width="75" height="75" viewBox="0 0 75 75"><g transform="translate(10.462 10)"><rect width="75" height="75" transform="translate(-10.462 -10)" fill="#222426"/><g transform="translate(7.978 7.691)"><path d="M32.779,22.764a9.865,9.865,0,0,0,1.54-4.955q.007-.182.007-.365A9.919,9.919,0,0,0,19.088,9.073a12.933,12.933,0,0,0-3.016.532,11.5,11.5,0,0,1,2.441-1.971l.1-.058A11.39,11.39,0,0,1,24.37,6h.038A11.443,11.443,0,0,1,35.852,17.443q0,.154,0,.307v.037a11.383,11.383,0,0,1-1.484,5.3l-.088.151a11.493,11.493,0,0,1-2.028,2.537A12.929,12.929,0,0,0,32.779,22.764Z" transform="translate(-2.388 0)" fill="#fff"/><path d="M23.455,21.8a3.052,3.052,0,0,0-2.878-2.034V19H19.052v.763a3.052,3.052,0,0,0,0,6.1v3.052A1.527,1.527,0,0,1,17.612,27.9a.763.763,0,0,0-1.438.508,3.052,3.052,0,0,0,2.878,2.034v.763h1.526v-.763a3.052,3.052,0,1,0,0-6.1V21.289a1.527,1.527,0,0,1,1.439,1.017.763.763,0,0,0,1.439-.508Zm-4.4-.509a1.526,1.526,0,1,0,0,3.052Zm1.526,7.629a1.526,1.526,0,1,0,0-3.052Z" transform="translate(-2.371 -3.082)" fill="#fff" fill-rule="evenodd"/><path d="M28.887,23.443A11.443,11.443,0,1,1,17.443,12,11.443,11.443,0,0,1,28.887,23.443Zm-1.526,0a9.918,9.918,0,1,1-9.918-9.918A9.918,9.918,0,0,1,27.361,23.443Z" transform="translate(0 -1.423)" fill="#fff" fill-rule="evenodd"/></g></g></svg>