<svg xmlns="http://www.w3.org/2000/svg" width="17" height="16.056" viewBox="0 0 17 16.056"><path d="M23,11.25A1.882,1.882,0,0,0,22.528,10V7H16.389v3a1.882,1.882,0,0,0-.472,1.249v4.722H11.342L9.125,14.437A1.392,1.392,0,0,0,7.383,16.6l-.368.061a1.216,1.216,0,0,0-.565,2.143,1.216,1.216,0,0,0,0,1.89,1.192,1.192,0,0,0,.6,2.118c.775.091,2.117.242,2.581.242V23.05q.073.006.147.006H21.111A1.889,1.889,0,0,0,23,21.167ZM8.072,21.979a1.878,1.878,0,0,1-.18-.7l-.735.11a.25.25,0,0,0-.213.247.245.245,0,0,0,.215.245C7.429,21.907,7.75,21.944,8.072,21.979Zm-.9-2.5.718-.12v.774l-.718-.12a.271.271,0,0,1,0-.535Zm0-1.354.718.12v-.387a1.9,1.9,0,0,1,.041-.394l-.759.127a.271.271,0,0,0,0,.535Zm1.416-2.915,1.1.761a1.88,1.88,0,0,0-1.113.431l-.542-.492a.448.448,0,0,1,.556-.7Zm4.522,6.9L10.1,16.917h-.32a.944.944,0,0,0-.944.944v3.306a.944.944,0,0,0,.944.944Zm-1.92-5.194L14.2,22.111h2.214L13.4,16.917Zm10.167,5.162a.946.946,0,0,1-.245.032h-3.6l-3.012-5.194h1.7Zm.668-.668-5.162-5.162V14.926l5.167,1.722.027.008v4.51A.947.947,0,0,1,22.024,21.411Zm.032-9.837-5.194,1.505v.852l5.194,1.731Zm-.213-.922L16.861,12.1V11.25a.944.944,0,0,1,.944-.944h3.306A.943.943,0,0,1,21.842,10.652Zm-.259-2.708h-4.25V9.361h4.25Z" transform="translate(-6 -7)" fill-rule="evenodd"/></svg>