<svg xmlns="http://www.w3.org/2000/svg" width="17.464" height="17.464" viewBox="0 0 17.464 17.464"><g transform="translate(-6 -6)"><path d="M26.7,16.66a6.273,6.273,0,0,0,.979-3.151q0-.116,0-.232a6.308,6.308,0,0,0-9.69-5.323,8.224,8.224,0,0,0-1.918.339,7.31,7.31,0,0,1,1.552-1.253L17.685,7a7.242,7.242,0,0,1,3.664-1h.024a7.277,7.277,0,0,1,7.277,7.277q0,.1,0,.2V13.5a7.238,7.238,0,0,1-.944,3.373l-.056.1a7.308,7.308,0,0,1-1.29,1.613A8.221,8.221,0,0,0,26.7,16.66Z" transform="translate(-5.186)"/><path d="M20.741,20.779a1.941,1.941,0,0,0-1.83-1.294V19h-.97v.485a1.94,1.94,0,0,0,0,3.881v1.94a.971.971,0,0,1-.915-.647.485.485,0,0,0-.915.323,1.941,1.941,0,0,0,1.83,1.294v.485h.97v-.485a1.94,1.94,0,0,0,0-3.881v-1.94a.971.971,0,0,1,.915.647.485.485,0,0,0,.915-.323Zm-2.8-.323a.97.97,0,0,0,0,1.94Zm.97,4.851a.97.97,0,0,0,0-1.94Z" transform="translate(-5.149 -6.694)" fill-rule="evenodd"/><path d="M20.553,19.277A7.277,7.277,0,1,1,13.277,12,7.277,7.277,0,0,1,20.553,19.277Zm-.97,0a6.306,6.306,0,1,1-6.306-6.306A6.306,6.306,0,0,1,19.583,19.277Z" transform="translate(0 -3.089)" fill-rule="evenodd"/></g></svg>