<svg xmlns="http://www.w3.org/2000/svg" width="45" height="45" viewBox="0 0 45 45"><g transform="translate(5.462 5)"><rect width="45" height="45" rx="12" transform="translate(-5.462 -5)" fill="#222426"/><path d="M166.277-864.755h1.794v-.9h.9a.868.868,0,0,0,.639-.258.868.868,0,0,0,.258-.639v-2.69a.868.868,0,0,0-.258-.639.868.868,0,0,0-.639-.258h-2.69v-.9h3.587v-1.794h-1.793v-.9h-1.794v.9h-.9a.868.868,0,0,0-.639.258.868.868,0,0,0-.258.639v2.69a.868.868,0,0,0,.258.639.868.868,0,0,0,.639.258h2.69v.9h-3.587v1.793h1.793Zm-4.484,2.69a1.727,1.727,0,0,1-1.267-.527,1.727,1.727,0,0,1-.527-1.267v-14.348a1.727,1.727,0,0,1,.527-1.267,1.727,1.727,0,0,1,1.267-.527h7.174l5.38,5.381v10.761a1.727,1.727,0,0,1-.527,1.267,1.727,1.727,0,0,1-1.267.527Zm6.277-12.554v-3.587h-6.277v14.348h10.761v-10.761Zm-6.277-3.587v0Z" transform="translate(-150.136 888.533)" fill="#fff"/></g></svg>