<svg xmlns="http://www.w3.org/2000/svg" width="45" height="45" viewBox="0 0 45 45"><g transform="translate(5.462 5)"><rect width="45" height="45" rx="12" transform="translate(-5.462 -5)" fill="#222426"/><path d="M168.222-868.7a3.475,3.475,0,0,1-2.556-1.041,3.475,3.475,0,0,1-1.041-2.556,3.475,3.475,0,0,1,1.041-2.557,3.475,3.475,0,0,1,2.556-1.041,3.475,3.475,0,0,1,2.556,1.041,3.475,3.475,0,0,1,1.041,2.557,3.475,3.475,0,0,1-1.041,2.556A3.475,3.475,0,0,1,168.222-868.7Zm0-2.055a1.5,1.5,0,0,0,1.1-.437,1.5,1.5,0,0,0,.437-1.1,1.5,1.5,0,0,0-.437-1.1,1.5,1.5,0,0,0-1.1-.437,1.5,1.5,0,0,0-1.1.437,1.5,1.5,0,0,0-.437,1.1,1.5,1.5,0,0,0,.437,1.1A1.5,1.5,0,0,0,168.222-870.751Zm0,11.3a10.239,10.239,0,0,1-5.9-4.1,11.8,11.8,0,0,1-2.325-7.1v-6.269L168.222-880l8.222,3.083v6.269a11.8,11.8,0,0,1-2.325,7.1A10.239,10.239,0,0,1,168.222-859.446ZM168.222-869.723Zm0-8.093-6.166,2.312v4.856a9.509,9.509,0,0,0,.385,2.7,11.257,11.257,0,0,0,1.053,2.467,11.576,11.576,0,0,1,2.261-.848,9.729,9.729,0,0,1,2.467-.308,9.729,9.729,0,0,1,2.467.308,11.576,11.576,0,0,1,2.261.848A11.259,11.259,0,0,0,174-867.95a9.511,9.511,0,0,0,.385-2.7V-875.5Zm0,13.232a7.823,7.823,0,0,0-1.8.206,9.124,9.124,0,0,0-1.67.565,9.2,9.2,0,0,0,1.619,1.336,7.613,7.613,0,0,0,1.85.874,7.613,7.613,0,0,0,1.85-.874,9.2,9.2,0,0,0,1.619-1.336,9.123,9.123,0,0,0-1.67-.565A7.823,7.823,0,0,0,168.222-864.584Z" transform="translate(-151.184 887.498)" fill="#fff"/></g></svg>