<svg xmlns="http://www.w3.org/2000/svg" width="45" height="45" viewBox="0 0 45 45"><g transform="translate(5.462 5)"><rect width="45" height="45" rx="12" transform="translate(-5.462 -5)" fill="#222426"/><path d="M48.746-902.508a8.448,8.448,0,0,1-4.095-1.014,8.862,8.862,0,0,1-3.061-2.7v2.127H40v-4.771h4.77v1.59H42.8a7.2,7.2,0,0,0,2.514,2.306,6.893,6.893,0,0,0,3.429.875,6.923,6.923,0,0,0,2.793-.567A7.274,7.274,0,0,0,53.8-906.2a7.274,7.274,0,0,0,1.531-2.266,6.922,6.922,0,0,0,.566-2.793h1.59a8.491,8.491,0,0,1-.686,3.4,8.851,8.851,0,0,1-1.878,2.783,8.851,8.851,0,0,1-2.783,1.878A8.489,8.489,0,0,1,48.746-902.508Zm-.716-3.18v-1.034a3.09,3.09,0,0,1-1.521-.8,3.525,3.525,0,0,1-.865-1.54l1.312-.517a2.366,2.366,0,0,0,.745,1.222,1.8,1.8,0,0,0,1.163.407,1.993,1.993,0,0,0,1.123-.308,1.072,1.072,0,0,0,.467-.964,1.108,1.108,0,0,0-.487-.934,7.6,7.6,0,0,0-1.739-.815,4.371,4.371,0,0,1-1.719-.994,2.105,2.105,0,0,1-.547-1.511,2.23,2.23,0,0,1,.566-1.481,2.645,2.645,0,0,1,1.54-.865v-.994h1.391v.994a2.213,2.213,0,0,1,1.3.576,2.663,2.663,0,0,1,.805,1.213l-1.272.517a1.749,1.749,0,0,0-.517-.765,1.475,1.475,0,0,0-.994-.308,1.653,1.653,0,0,0-1.063.3.993.993,0,0,0-.368.815.926.926,0,0,0,.457.815,7.948,7.948,0,0,0,1.65.7,3.849,3.849,0,0,1,1.908,1.212,2.649,2.649,0,0,1,.477,1.531,2.428,2.428,0,0,1-.2,1.014,2.337,2.337,0,0,1-.527.745,2.629,2.629,0,0,1-.765.5,4.649,4.649,0,0,1-.934.288v.994ZM40-911.254a8.49,8.49,0,0,1,.686-3.4,8.853,8.853,0,0,1,1.878-2.783,8.853,8.853,0,0,1,2.783-1.878,8.491,8.491,0,0,1,3.4-.686,8.446,8.446,0,0,1,4.095,1.014,8.86,8.86,0,0,1,3.061,2.7v-2.127h1.59v4.77h-4.77v-1.59h1.968a7.2,7.2,0,0,0-2.514-2.306,6.893,6.893,0,0,0-3.429-.875,6.922,6.922,0,0,0-2.793.566,7.272,7.272,0,0,0-2.266,1.531,7.272,7.272,0,0,0-1.531,2.266,6.923,6.923,0,0,0-.566,2.793Z" transform="translate(-31.708 928.754)" fill="#fff"/></g></svg>