<svg xmlns="http://www.w3.org/2000/svg" width="45.562" height="45.562" viewBox="0 0 45.562 45.562"><g transform="translate(5.462 5)"><path d="M9.941,0h25.68a9.941,9.941,0,0,1,9.941,9.941v25.68a9.941,9.941,0,0,1-9.941,9.941H9.941A9.941,9.941,0,0,1,0,35.621V9.941A9.941,9.941,0,0,1,9.941,0Z" transform="translate(-5.462 -5)" fill="#222426"/><path d="M114.243-838.767h1.518v-1.109a3.262,3.262,0,0,0,1.91-.985,2.616,2.616,0,0,0,.765-1.859,2.667,2.667,0,0,0-.645-1.814,4.672,4.672,0,0,0-2.007-1.223,7.219,7.219,0,0,1-1.916-.9,1.212,1.212,0,0,1-.446-.976.985.985,0,0,1,.422-.807,1.746,1.746,0,0,1,1.1-.325,2.183,2.183,0,0,1,1.163.313,1.557,1.557,0,0,1,.693.868l1.326-.579a3.071,3.071,0,0,0-.916-1.277,3.045,3.045,0,0,0-1.446-.649v-1.11h-1.494v1.133a3.14,3.14,0,0,0-1.7.889,2.206,2.206,0,0,0-.639,1.569,2.486,2.486,0,0,0,.711,1.8,5.9,5.9,0,0,0,2.3,1.289,4.884,4.884,0,0,1,1.554.807,1.3,1.3,0,0,1,.476,1,1.34,1.34,0,0,1-.512,1.06,1.865,1.865,0,0,1-1.247.434,2.127,2.127,0,0,1-1.4-.518,2.559,2.559,0,0,1-.839-1.338l-1.4.578a3.807,3.807,0,0,0,1.012,1.657,3.833,3.833,0,0,0,1.663.942Zm.771,2.8a8.77,8.77,0,0,1-3.5-.705,9.082,9.082,0,0,1-2.875-1.94,9.131,9.131,0,0,1-1.938-2.876,8.755,8.755,0,0,1-.705-3.493,8.742,8.742,0,0,1,.705-3.508,9.12,9.12,0,0,1,1.94-2.863,9.132,9.132,0,0,1,2.876-1.937,8.753,8.753,0,0,1,3.493-.705,8.741,8.741,0,0,1,3.509.705,9.118,9.118,0,0,1,2.863,1.94,9.169,9.169,0,0,1,1.938,2.864,8.729,8.729,0,0,1,.705,3.5,8.769,8.769,0,0,1-.705,3.5,9.084,9.084,0,0,1-1.94,2.875,9.171,9.171,0,0,1-2.864,1.937A8.727,8.727,0,0,1,115.014-835.971Zm0-1.615a7.133,7.133,0,0,0,5.236-2.163,7.132,7.132,0,0,0,2.163-5.236,7.132,7.132,0,0,0-2.163-5.236,7.132,7.132,0,0,0-5.236-2.163,7.132,7.132,0,0,0-5.236,2.163,7.132,7.132,0,0,0-2.163,5.236,7.132,7.132,0,0,0,2.163,5.236A7.133,7.133,0,0,0,115.014-837.586ZM115.014-844.986Z" transform="translate(-97.695 862.986)" fill="#fff"/></g></svg>