<svg xmlns="http://www.w3.org/2000/svg" width="45" height="45" viewBox="0 0 45 45"><g transform="translate(5.462 5)"><rect width="45" height="45" rx="12" transform="translate(-5.462 -5)" fill="#222426"/><path d="M167.143-866.074l5.807-5.807-1.465-1.464L167.143-869l-2.158-2.158L163.52-869.7Zm1.079,6.629a10.24,10.24,0,0,1-5.9-4.1,11.8,11.8,0,0,1-2.325-7.1v-6.269L168.222-880l8.222,3.083v6.269a11.8,11.8,0,0,1-2.325,7.1A10.24,10.24,0,0,1,168.222-859.445Zm0-2.158a8.363,8.363,0,0,0,4.419-3.391,9.761,9.761,0,0,0,1.747-5.653V-875.5l-6.166-2.312-6.166,2.313v4.856a9.761,9.761,0,0,0,1.747,5.653A8.363,8.363,0,0,0,168.222-861.6ZM168.222-869.723Z" transform="translate(-151.184 887.223)" fill="#fff"/></g></svg>