<svg xmlns="http://www.w3.org/2000/svg" width="30" height="30" viewBox="0 0 30 30"><g transform="translate(-97.789 7)"><rect width="30" height="30" transform="translate(97.789 -7)" fill="#222426" opacity="0"/><g transform="translate(106.113 1)"><path d="M7.867,99.73H5.146a.219.219,0,0,0-.219.219v8.742a.219.219,0,0,0,.219.219H7.867a.219.219,0,0,0,.219-.219V99.949A.219.219,0,0,0,7.867,99.73Z" transform="translate(-4.712 -95.384)" fill="#222426"/><path d="M1.8.341A1.794,1.794,0,1,0,3.59,2.135,1.8,1.8,0,0,0,1.8.341Z" transform="translate(0 -0.341)" fill="#222426"/><path d="M111.61,94.761a3.2,3.2,0,0,0-2.391,1V95.2a.219.219,0,0,0-.219-.219h-2.606a.219.219,0,0,0-.219.219v8.742a.219.219,0,0,0,.219.219h2.715a.219.219,0,0,0,.219-.219V99.613c0-1.457.4-2.025,1.412-2.025,1.106,0,1.194.91,1.194,2.1v4.25a.219.219,0,0,0,.219.219h2.716a.219.219,0,0,0,.219-.219V99.144C115.088,96.976,114.675,94.761,111.61,94.761Z" transform="translate(-101.534 -90.633)" fill="#222426"/></g></g></svg>