<svg xmlns="http://www.w3.org/2000/svg" width="75" height="75" viewBox="0 0 75 75"><g transform="translate(10.462 10)"><rect width="75" height="75" transform="translate(-10.462 -10)" fill="#222426"/><g transform="translate(6.992 7.691)"><path d="M23.064,20.3a4.064,4.064,0,0,1,3.266-1.8,4,4,0,0,1,3.261,1.788A4,4,0,0,1,32.853,18.5a3.838,3.838,0,0,1,2.134.621,4.317,4.317,0,0,1,1.178,1.167.782.782,0,0,1-.188,1.081.762.762,0,0,1-1.069-.19,2.387,2.387,0,0,0-2.056-1.127c-1.058,0-1.949.735-2.565,2.084l-.7,1.525-.7-1.525c-.616-1.349-1.506-2.084-2.565-2.084A2.543,2.543,0,0,0,24.3,21.221a5.009,5.009,0,0,0-.9,2.91,6.2,6.2,0,0,0,.248,1.723,7.053,7.053,0,0,0,.281.792,12.413,12.413,0,0,0,3.882,4.465.782.782,0,0,1,.134,1.089.762.762,0,0,1-1.077.136c-.248-.2-.514-.41-.789-.643a12.573,12.573,0,0,1-3.561-4.438,8.621,8.621,0,0,1-.343-.968,7.764,7.764,0,0,1-.309-2.157A6.57,6.57,0,0,1,23.064,20.3Z" transform="translate(-3.458 -2.572)" fill="#fff" fill-rule="evenodd"/><path d="M18.66,12.28l1.283,2.484,1.488-2.484c1.136-2.413,2.773-3.727,4.73-3.727a4.716,4.716,0,0,1,3.747,2.087,8.762,8.762,0,0,1,1.649,5.195q0,.36-.027.715a4.317,4.317,0,0,1,1.178,1.167.778.778,0,0,1,.138.4,9.1,9.1,0,0,0,.246-2.284C33.092,11.251,30.167,7,26.161,7a6.274,6.274,0,0,0-5.208,3.022,11.174,11.174,0,0,0-.907,1.59,11.181,11.181,0,0,0-.907-1.59A6.274,6.274,0,0,0,13.931,7C9.925,7,7,11.25,7,15.834a12.356,12.356,0,0,0,.522,3.531,14,14,0,0,0,.586,1.6C11.258,28.2,20.046,32.618,20.046,32.618a34.6,34.6,0,0,0,4.222-2.8.76.76,0,0,1-.856-.059c-.248-.2-.514-.41-.789-.643-.5.36-.96.679-1.377.954-.484.319-.9.577-1.22.769-.178-.1-.384-.222-.616-.362a33.941,33.941,0,0,1-3.218-2.208,21.6,21.6,0,0,1-6.68-7.934,12.442,12.442,0,0,1-.52-1.422,10.787,10.787,0,0,1-.457-3.084,8.761,8.761,0,0,1,1.649-5.195,4.716,4.716,0,0,1,3.747-2.087C15.887,8.553,17.524,9.866,18.66,12.28Z" transform="translate(0)" fill="#fff"/><path d="M37.71,25.1a.875.875,0,0,1,.858.892,8.147,8.147,0,0,1-2.754,6.056,9.9,9.9,0,0,1-1.822,1.307c-.248.138-.457.24-.608.309-.075.034-.136.06-.18.079l-.053.022-.016.006-.006,0h0A.867.867,0,0,1,32,33.262a.883.883,0,0,1,.506-1.132l0,0,.028-.011c.027-.011.069-.029.126-.055.113-.052.28-.133.484-.246a8.164,8.164,0,0,0,1.5-1.075,6.381,6.381,0,0,0,2.177-4.771A.875.875,0,0,1,37.71,25.1Z" transform="translate(-5.803 -4.049)" fill="#fff"/></g></g></svg>