<svg xmlns="http://www.w3.org/2000/svg" width="75" height="75" viewBox="0 0 75 75"><g transform="translate(10.462 10)"><rect width="75" height="75" transform="translate(-10.462 -10)" fill="#222426"/><g transform="translate(4.538 5.515)"><path d="M32,29.641a2.608,2.608,0,0,1,5.215,0V40.8a.869.869,0,0,1-1.738,0V29.641a.869.869,0,0,0-1.738,0v.3a.869.869,0,0,1-1.738,0Z" transform="translate(-2.878 -3.179)" fill="#fff" fill-rule="evenodd"/><path d="M17.175,16.724A5.661,5.661,0,0,0,13.144,18.2a4.582,4.582,0,0,0-1.405,3.253A4.476,4.476,0,0,0,13.1,24.725a5.626,5.626,0,0,0,3.878,1.48l.847.021V37.645c0,.231.249.609.825.631a.818.818,0,0,0,.911-.586l.85-8.034h3.52l.85,8.034a.818.818,0,0,0,.911.586c.576-.023.825-.4.825-.631V18.662l1.229.554A5.437,5.437,0,0,1,29.737,20.7a4.35,4.35,0,0,1,.994,2.113l0,.017v.014a.918.918,0,0,0,1.014.779.9.9,0,0,0,.854-.93,4.441,4.441,0,0,0-.229-.99,6.4,6.4,0,0,0-1.146-2.048c-1.267-1.528-3.587-2.926-7.689-2.926Zm-5.245.246A7.4,7.4,0,0,1,17.175,15h6.363c4.541,0,7.386,1.571,9.031,3.555a8.12,8.12,0,0,1,1.453,2.6,6.127,6.127,0,0,1,.31,1.378v0a2.677,2.677,0,0,1-5.327.494,2.666,2.666,0,0,0-.612-1.239c-.043-.051-.09-.1-.142-.159V37.645A2.479,2.479,0,0,1,25.758,40a2.535,2.535,0,0,1-2.709-2.129l-.686-6.49h-.389l-.686,6.49A2.535,2.535,0,0,1,18.579,40a2.479,2.479,0,0,1-2.495-2.354V27.869a7.131,7.131,0,0,1-4.2-1.913A6.193,6.193,0,0,1,10,21.441,6.3,6.3,0,0,1,11.93,16.97Zm5.892,1.441v6.106l-.908-.04a3.633,3.633,0,0,1-2.455-.937,2.828,2.828,0,0,1-.847-2.067,2.931,2.931,0,0,1,.888-2.081,3.6,3.6,0,0,1,2.41-.938Zm-1.738,1.966a1.349,1.349,0,0,0-.369.249,1.214,1.214,0,0,0-.364.864,1.112,1.112,0,0,0,.326.819,1.311,1.311,0,0,0,.407.262Z" transform="translate(0 -1.517)" fill="#fff" fill-rule="evenodd"/><path d="M23.346,5.724a2.586,2.586,0,1,0,2.608,2.586A2.6,2.6,0,0,0,23.346,5.724ZM19,8.311a4.346,4.346,0,1,1,4.346,4.311A4.328,4.328,0,0,1,19,8.311Z" transform="translate(-1.177 0)" fill="#fff" fill-rule="evenodd"/></g></g></svg>