<svg xmlns="http://www.w3.org/2000/svg" xmlns:xlink="http://www.w3.org/1999/xlink" width="63.75" height="25" viewBox="0 0 63.75 25"><defs><clipPath id="a"><rect width="63.671" height="24.959" fill="#222426"/></clipPath></defs><g transform="translate(-1170 -1196.342)"><g transform="translate(1170 1196.342)" fill="#222426" stroke="#707070" stroke-width="1" opacity="0"><rect width="63.75" height="25" stroke="none"/><rect x="0.5" y="0.5" width="62.75" height="24" fill="none"/></g><g transform="translate(1170 1196.342)"><g clip-path="url(#a)"><path d="M12.034,18.974c-.446.509-1.082,1.273-.955,1.846h0c.127.446.764.764.764.764l1.4.764-.891.764,1.082.318s-1.019,1.019-1.082,1.146a3.916,3.916,0,0,1-.891.064c-2.292,0-5.476-1.337-6.24-1.337a6.846,6.846,0,0,0-2.165.509l.637-.7A6,6,0,0,1,2.1,23.24l1.082-.764a3.867,3.867,0,0,1-2.228-.637s1.783-.127,4.266-.127c1.019,0,2.674.127,2.674.127a3.3,3.3,0,0,1-1.91-1.655l1.592.255A4.142,4.142,0,0,1,5.794,18.21l1.783.637A5.142,5.142,0,0,1,5.985,16.3l1.4.891a6.034,6.034,0,0,1-1.21-2.865l1.273.891c-.637-.764-1.337-2.8-.828-3.629a3.544,3.544,0,0,0,1.273,2.1c-.573-.828-1.846-3.82-.637-5.094.318,2.929,1.592,3.948,1.592,3.948-1.019-1.655-2.228-6.749,0-7.768a8.118,8.118,0,0,0,.637,5.03C8.85,6.813,8.85,2.547,11.079,2.165a9.965,9.965,0,0,0-.318,5.667C10.378.318,12.8.446,12.8.446a36.711,36.711,0,0,0-.382,5.921V17.319a2.365,2.365,0,0,1-.382,1.655ZM13.5,21.648a20.533,20.533,0,0,1,2.356.255.533.533,0,0,1,.382.509c-.318-.064-.828-.127-.828-.127V22.6a3.9,3.9,0,0,1,.955-.127s1.019,0,.955.7a1.43,1.43,0,0,0-1.019-.064,3.922,3.922,0,0,0-1.528.637,10.741,10.741,0,0,1-1.719.764c.255-.255,1.019-1.082,1.019-1.082l-1.019-.509.828-.7-1.273-.7c.318.064.573.064.891.127Zm.064-1.146h4.521V5.667H13.944V14.9l-1.21-1.146V6.367A29.384,29.384,0,0,1,13.244,0a2.761,2.761,0,0,0-2.292,1.719,2.09,2.09,0,0,0-1.783,1.4,3.147,3.147,0,0,0-.382,1.21C7.131,4.712,7,7.641,7.131,8.15L4.584,5.667H0V20.5H4.139V11.524l1.974,1.91a3.324,3.324,0,0,0,.382.764l-.764-.7a3.668,3.668,0,0,0,.637,2.738l-.955-.828a3.348,3.348,0,0,0,1.082,2.738L5.221,17.51a3.1,3.1,0,0,0,1.273,2.356l-1.082-.127A2.237,2.237,0,0,0,6.494,21.33s-1.846.064-2.674.064A34.054,34.054,0,0,0,0,21.585a4.021,4.021,0,0,0,2.356,1.082l-1.146.7a3.359,3.359,0,0,0,1.592.191l-.7.828a10.847,10.847,0,0,1,2.993-.764c.7.064,4.011,1.337,6.24,1.337a6.876,6.876,0,0,0,3.438-1.019,5.338,5.338,0,0,1,1.464-.573,1.349,1.349,0,0,1,1.146.191c.064-.318.318-1.21-.955-1.4a.751.751,0,0,0-.637-.573c-.7-.127-3.693-.318-3.757-.318-.255,0-1.082-.191-.318-1.337.064-.064.446-.573.446-.573l1.4,1.146" fill="#222426"/></g><path d="M56.637,17a.576.576,0,1,1-.637.573A.588.588,0,0,1,56.637,17" transform="translate(-20.344 -6.176)" fill="#222426"/><path d="M82.037,17a.576.576,0,1,1-.637.573A.588.588,0,0,1,82.037,17" transform="translate(-29.572 -6.176)" fill="#222426"/><path d="M48.138,20.992V23.22h-.955v-.382a1.426,1.426,0,0,1-1.082.446,1.254,1.254,0,0,1-1.4-1.146c0-1.082,1.146-1.337,2.292-1.337h.127c0-.318-.127-.573-.7-.573a1.446,1.446,0,0,0-1.019.382l-.573-.573a2.261,2.261,0,0,1,1.592-.637,1.773,1.773,0,0,1,1.337.382,1.924,1.924,0,0,1,.382,1.21m-1.019.637h-.064a2.486,2.486,0,0,0-.891.127c-.191.064-.382.191-.382.382,0,.255.255.382.509.382a.754.754,0,0,0,.828-.764v-.127" transform="translate(-16.239 -7.048)" fill="#222426"/><path d="M52.483,18.946V17.8H51.4v1.146h-.7v.891h.7v1.592a1.385,1.385,0,0,0,.318,1.082,1.318,1.318,0,0,0,.955.318,2.736,2.736,0,0,0,.764-.127v-.955a1.413,1.413,0,0,1-.573.064c-.318,0-.382-.191-.382-.509V19.837h.955v-.891h-.955" transform="translate(-18.419 -6.467)" fill="#222426"/><path d="M95.22,21.4v.255H92.482c0,.382.446.7.955.7a1.244,1.244,0,0,0,.955-.446l.7.509a1.937,1.937,0,0,1-1.655.828A1.888,1.888,0,0,1,91.4,21.274,1.852,1.852,0,0,1,93.31,19.3a1.977,1.977,0,0,1,1.91,2.1m-1.146-.446a.744.744,0,0,0-.828-.7.828.828,0,0,0-.828.7h1.655" transform="translate(-33.204 -7.011)" fill="#222426"/><path d="M39.793,17v3.629L37.5,17H36.1v5.348h1.146V18.592L39.6,22.348h1.337V17H39.793" transform="translate(-13.115 -6.176)" fill="#222426"/><path d="M76.548,19.6l-.637,2.292L75.338,19.6H74.256l-.573,2.292L73.046,19.6H71.9l1.146,3.693h1.082L74.765,21l.7,2.292h1.019l1.21-3.693H76.548" transform="translate(-26.12 -7.12)" fill="#222426"/><rect width="1.082" height="3.693" transform="translate(35.72 12.48)" fill="#222426"/><rect width="1.082" height="3.693" transform="translate(51.892 12.48)" fill="#222426"/><path d="M69.093,19.818A1.109,1.109,0,0,0,68.2,19.5a1.36,1.36,0,0,0-1.082.509v-.382H66.1V23.32h1.082V21.283a.778.778,0,0,1,.191-.573.578.578,0,0,1,.446-.191c.255,0,.382.064.446.191.127.127.127.382.127.764v1.91h1.082V21.092a1.619,1.619,0,0,0-.382-1.273" transform="translate(-24.013 -7.084)" fill="#222426"/><path d="M88.211,17v5.412H87.193V22.03a1.614,1.614,0,0,1-1.146.509,1.778,1.778,0,0,1-1.273-.509,2.017,2.017,0,0,1-.573-1.464,1.831,1.831,0,0,1,1.783-1.974,1.534,1.534,0,0,1,1.146.446V17Zm-1.082,3.5a.957.957,0,1,0-.955,1.019.951.951,0,0,0,.955-1.019" transform="translate(-30.589 -6.176)" fill="#222426"/><path d="M62.775,21.374a1.923,1.923,0,0,1-2.037,1.974A1.959,1.959,0,0,1,58.7,21.374,1.923,1.923,0,0,1,60.737,19.4a1.959,1.959,0,0,1,2.037,1.974m-2.037-1.019a1.021,1.021,0,1,0,.955,1.019.951.951,0,0,0-.955-1.019" transform="translate(-21.325 -7.048)" fill="#222426"/><path d="M97.873,18.273h.191v-.382h.127l.191.382h.191l-.255-.382a.274.274,0,0,0,.255-.255.3.3,0,0,0-.318-.318h-.382v.955ZM98,17.509h.127c.127,0,.255,0,.255.127s-.127.127-.255.127H98v-.255Zm-.7.318A.828.828,0,1,0,98.128,17a.843.843,0,0,0-.828.828m.191,0a.7.7,0,1,1,.7.7.707.707,0,0,1-.7-.7" transform="translate(-35.348 -6.176)" fill="#222426"/></g></g></svg>