<svg xmlns="http://www.w3.org/2000/svg" width="14.343" height="20.485" viewBox="0 0 14.343 20.485"><g transform="translate(-10 -4)"><path d="M32,28.591a1.536,1.536,0,0,1,3.073,0v6.63a.512.512,0,0,1-1.024,0v-6.63a.512.512,0,0,0-1.024,0v.176a.512.512,0,1,1-1.024,0Z" transform="translate(-10.733 -11.248)" fill-rule="evenodd"/><path d="M14.227,16.024a3.32,3.32,0,0,0-2.375.879,2.733,2.733,0,0,0-.828,1.932,2.67,2.67,0,0,0,.8,1.941,3.3,3.3,0,0,0,2.285.879l.5.013v6.783c0,.137.147.362.486.375a.482.482,0,0,0,.537-.348l.5-4.773h2.074l.5,4.773a.482.482,0,0,0,.537.348c.339-.013.486-.238.486-.375V17.176l.724.329a3.206,3.206,0,0,1,1.175.878,2.593,2.593,0,0,1,.585,1.255v.018a.542.542,0,0,0,.6.463.536.536,0,0,0,.5-.553,2.656,2.656,0,0,0-.135-.588,3.81,3.81,0,0,0-.675-1.216c-.747-.907-2.114-1.738-4.53-1.738Zm-3.09.146A4.34,4.34,0,0,1,14.227,15h3.749A6.529,6.529,0,0,1,23.3,17.112a4.835,4.835,0,0,1,.856,1.544,3.665,3.665,0,0,1,.183.819v0a1.577,1.577,0,0,1-3.139.294,1.589,1.589,0,0,0-.361-.736c-.025-.031-.053-.062-.083-.095v9.512a1.466,1.466,0,0,1-1.47,1.4,1.5,1.5,0,0,1-1.6-1.265l-.4-3.855h-.229l-.4,3.855a1.5,1.5,0,0,1-1.6,1.265,1.466,1.466,0,0,1-1.47-1.4V22.644a4.187,4.187,0,0,1-2.477-1.136A3.694,3.694,0,0,1,10,18.826,3.757,3.757,0,0,1,11.137,16.17Zm3.472.856v3.627l-.535-.024a2.131,2.131,0,0,1-1.447-.556,1.687,1.687,0,0,1-.5-1.228,1.748,1.748,0,0,1,.523-1.236,2.115,2.115,0,0,1,1.42-.557Zm-1.024,1.168a.8.8,0,0,0-.218.148.724.724,0,0,0-.214.513.663.663,0,0,0,.192.487.772.772,0,0,0,.24.156Z" transform="translate(0 -5.367)" fill-rule="evenodd"/><path d="M21.561,5.024A1.536,1.536,0,1,0,23.1,6.561,1.536,1.536,0,0,0,21.561,5.024ZM19,6.561a2.561,2.561,0,1,1,2.561,2.561A2.561,2.561,0,0,1,19,6.561Z" transform="translate(-4.391)" fill-rule="evenodd"/></g></svg>