<svg xmlns="http://www.w3.org/2000/svg" width="48.807" height="24.949" viewBox="0 0 48.807 24.949"><g fill="#fff" stroke="#707070" stroke-width="1" opacity="0"><rect width="48.807" height="24.949" stroke="none"/><rect x="0.5" y="0.5" width="47.807" height="23.949" fill="none"/></g><g transform="translate(1 0.624)"><path d="M18.416,116.858l-.074-.049c-.321-.173-.47-.667-.618-1.088l-1.755-4.647-1.656-.025v.173l.1.025a1.219,1.219,0,0,1,.124.049c.1.074.173.173.074.47a2.111,2.111,0,0,1-.1.247l-1.359,3.708c-.149.4-.272.914-.618,1.088l-.123.049v.149h1.879v-.149l-.148-.049c-.148-.074-.2-.247-.025-.741l.222-.668h1.977c.05.124.1.322.2.618.1.272.247.667.05.791l-.124.049v.149h1.977Zm-2.423-2.4H14.659l.667-1.829Zm14.534-3.411v.149l.148.074c.2.074.2.618.2.964v3.584c0,.3,0,.89-.2.989l-.148.049v.149h1.9v-.149l-.123-.049c-.223-.1-.223-.692-.2-.989v-3.584c-.025-.494.049-.914.2-.964l.123-.074v-.149h-1.9Zm-7.119,0v.149l.124.074c.223.074.223.618.2.964v3.584c0,.3.025.89-.2.989l-.124.049v.149h1.9v-.149l-.148-.049c-.2-.1-.2-.692-.2-.989v-3.584c0-.494.049-.914.2-.964l.148-.074v-.149h-1.9Zm20.911,1.186c.025-.346.025-.89-.2-.964L44,111.2v-.149h1.9v.149l-.148.074c-.149.049-.2.469-.2.964v3.584c0,.3,0,.89.2.989l.148.049v.149H44v-.149l.124-.049c.222-.1.222-.692.2-.989Zm-31.564-1.681a2.527,2.527,0,0,0-1.8-.667H8.5v.148l.124.05c.321.148.3.914.3,1.483v3.906c0,.42.025,1.186-.3,1.31l-.124.074v.149h2.225v-.149l-.1-.049c-.4-.272-.4-.84-.4-1.433v-1.261l.247.1a2.635,2.635,0,0,0,.717.124,2.12,2.12,0,0,0,2.15-2.274,2.068,2.068,0,0,0-.593-1.508Zm-2.2,3.213h-.2l-.124.025v-2.67a3.533,3.533,0,0,1,.544-.024,1.53,1.53,0,0,1,1.038.321,1.123,1.123,0,0,1,.3.84A1.572,1.572,0,0,1,10.555,113.769ZM22.791,115.4l-.05.025a.92.92,0,0,1-.124.1,2.856,2.856,0,0,1-1.483.494A1.488,1.488,0,0,1,20,115.573a2.349,2.349,0,0,1-.593-1.681,1.63,1.63,0,0,1,1.557-1.829,2.281,2.281,0,0,1,1.285.42l.124.1.222.149v-1.557l-.173-.025a5.49,5.49,0,0,0-1.433-.222,2.76,2.76,0,0,0-2,.79,3.2,3.2,0,0,0-.865,2.3,3.041,3.041,0,0,0,.84,2.274,3.139,3.139,0,0,0,2.274.84,2.761,2.761,0,0,0,1.236-.272h.025l.049-.024.025-.05.4-1.384h-.173Zm14.633,0-.148.124a3.033,3.033,0,0,1-1.508.494,1.525,1.525,0,0,1-1.137-.445,2.34,2.34,0,0,1-.569-1.681,1.631,1.631,0,0,1,1.557-1.829,2.407,2.407,0,0,1,1.285.42l.321.248v-1.557l-.148-.025a5.645,5.645,0,0,0-1.433-.222,2.779,2.779,0,0,0-2.027.79,3.3,3.3,0,0,0-.865,2.3,2.9,2.9,0,0,0,3.114,3.114,2.954,2.954,0,0,0,1.261-.272l.074-.024.42-1.434Zm-7.91-4.325-1.557-.025h-1.9v.149l.124.074c.222.074.222.618.222.964v3.584c0,.3,0,.89-.222.989l-.124.049v.149h1.9v-.149l-.124-.049c-.222-.1-.222-.692-.222-.989v-1.186h1.063s.47-.024.519.149l.049.1.124.025.074-1.607h-.148l-.05.1c-.025.148-.445.173-.568.173H27.611v-1.483H29.02c.321,0,.494.074.544.247l.025.1h.148l.346-1.409s-.445.049-.569.049Zm20.565,0L48.5,111.05h-1.9v.149l.123.074c.223.074.223.618.223.964v3.584c0,.3,0,.89-.2.989l-.148.049v.149h1.9v-.149l-.124-.049c-.222-.1-.222-.692-.222-.989v-1.186h1.063s.47-.024.544.149l.025.1.123.025.074-1.607h-.148l-.025.1c-.049.148-.47.173-.593.173H48.152v-1.483h1.433c.3,0,.47.074.519.247l.049.1h.124l.346-1.409s-.445.049-.544.049Zm4.894,4.474a2.592,2.592,0,0,1-1.557.469,2.9,2.9,0,0,1-.89-.1v-1.508h.865c.025,0,.47-.025.544.148l.025.074.123.025.1-1.458H54.01l-.025.1c-.049.123-.445.148-.544.148h-.915v-1.359h1.137c.3,0,.593,0,.692.247l.025.1h.148l.272-1.409s-.445.024-.544.024H50.97v.149l.123.074c.223.074.223.618.223.964v3.584c0,.3,0,.865-.173.989a1,1,0,0,1-.173.049v.149h3.781l.371-1.458h-.149Zm-11.37-.322-.074.05a2.535,2.535,0,0,1-1.73.667c-.618,0-.89-.025-.89-.025V111.3c0-.4,0-1.088.371-1.211l.123-.05v-.148H39.2v.148l.124.05c.3.123.272.815.272,1.211v4.3c0,.4.024,1.088-.272,1.211l-.124.049v.149h3.955l.618-1.78H43.6Z" transform="translate(-8.504 -93.847)" fill="#222426" fill-rule="evenodd"/><path d="M71.906,62.711a1.855,1.855,0,0,0-.025-.371c-.049,0-3.534.223-5.24.223-2.249,0-5.463-.025-5.463-.025l-14.9-.148v-.322l14.88-.049s3.238.049,5.487.049c1.706,0,5.166-.024,5.24,0-.025-.2-.025-.445-.049-.642-.075,0-3.51.272-5.191.272-2.249,0-5.463-.149-5.463-.149l-3.831.025L52.3,61.426l-5.957-.05a1.676,1.676,0,0,1,.049-.346,5.2,5.2,0,0,0,1.112.1,3.576,3.576,0,0,0,1.409-.222,6.548,6.548,0,0,0,1.631.2c.445,0,1.409-.445,2-.272.964.3,1.335-.148,1.335-.148a.962.962,0,0,0,1.359.223,3.807,3.807,0,0,0,2.076.4c1.9-.025,2.4-1.013,2.4-1.013h.074a.809.809,0,0,0,.05.519,1.036,1.036,0,0,0,.791.47,3.343,3.343,0,0,1,.445-1.953h.075l-.075.247a2.782,2.782,0,0,0,.173,1.631l.173-.1a2.486,2.486,0,0,1,.025-1.285,3.67,3.67,0,0,1,.42-1.137h.1a3.8,3.8,0,0,0-.2,1.038,1.679,1.679,0,0,0,.939,1.532.883.883,0,0,0,.964-.247,10.39,10.39,0,0,0,2.175.3c2.3,0,2.818-.371,2.818-.371s.148.272,1.335.272a10.417,10.417,0,0,0,1.532-.1c.1,0,.2-.025.247-.025a4.95,4.95,0,0,0-.1-.593,13.482,13.482,0,0,0-5.66-8.726l-.173.47a12.85,12.85,0,0,1,5.562,8.355A4.523,4.523,0,0,1,70,60.833c-.914,0-1.112-.3-1.112-.3a1.716,1.716,0,0,1-.939.247,1.554,1.554,0,0,1-.939-.4,2.261,2.261,0,0,1-1.483.519,2.223,2.223,0,0,1-1.9-1.014A2.9,2.9,0,0,1,63.3,59.3h-.1a2.039,2.039,0,0,0,.123.445,4.294,4.294,0,0,0,.3.643c.024.074.1.222-.05.272a.17.17,0,0,1-.2-.074,3.1,3.1,0,0,1-.421-.84,4.681,4.681,0,0,1-.2-1.063h-.074a5.684,5.684,0,0,0-.05,1.014,2.651,2.651,0,0,0,.223.89,1.073,1.073,0,0,1,.024.124.172.172,0,0,1-.222.2.434.434,0,0,1-.247-.223c-.494-.84.1-2.4.3-2.941a7.24,7.24,0,0,0,.322-1.384,10.253,10.253,0,0,0,.519-.915,8.042,8.042,0,0,1,.544-1.063,8.478,8.478,0,0,0,.964-1.458c.049-.124.37-.816.445-1.013.049-.124.1-.247.148-.4a11.147,11.147,0,0,0,.3-1.483c.025-.173-.271-.272-.271-.272a1.466,1.466,0,0,0-.445-.1,1.2,1.2,0,0,0-.321.148c-.149.074-.223.025-.223.025a.794.794,0,0,0-.346-.074c-.1.025-.2.149-.3.2-.148.074-.2.025-.2.025a.647.647,0,0,0-.321,0,1.323,1.323,0,0,0-.445.272,13.276,13.276,0,0,0-4.672-.84A13.478,13.478,0,0,0,44.939,62.688v.371H71.906v-.347ZM54.7,59.992c-.049-.025-.025-.05-.049-.074a18.921,18.921,0,0,1,2.62-5.438c.148.074.272.149.4.223A20.168,20.168,0,0,0,54.7,59.992Zm.84.4A17.368,17.368,0,0,1,58.015,54.9c.148.074.272.173.42.247a20.38,20.38,0,0,0-2.818,5.29C55.568,60.412,55.593,60.412,55.543,60.388Zm1.063.272h-.074a17.368,17.368,0,0,1,2.2-5.314c.148.1.272.2.4.272A19.668,19.668,0,0,0,56.606,60.66Zm1.014-.025c-.025,0-.025,0-.074.025a17.23,17.23,0,0,1,1.9-4.82c.148.124.3.222.4.3a18.56,18.56,0,0,0-2.225,4.5Zm3.559-3.584a1,1,0,0,1-.766-.321.93.93,0,0,0,.865.717v.025a.928.928,0,0,1-.272.025.907.907,0,0,1-.914-.89c0-.074.025-.148.025-.223.37.3,1.211.742,1.656.1l.025.049A.711.711,0,0,1,61.179,57.051Zm1.508-2.076a.326.326,0,0,1-.223.272.54.54,0,0,0-.222.173c-.025.025-.05.025-.05,0a.347.347,0,0,1-.1-.049l-.025-.025v-.074l.025-.05v-.1a.489.489,0,0,1-.025-.247.563.563,0,0,1,.173-.247l.049.025a.419.419,0,0,0-.1.2.474.474,0,0,0,0,.321v.074l.05.025a.087.087,0,0,1,.049-.025.539.539,0,0,1,.124-.1s-.148-.1-.074-.222c.049-.124.2-.074.2-.074a.685.685,0,0,0,.025-.3l.074.025a.968.968,0,0,1,.05.4Zm.692-4.573a1.765,1.765,0,0,1,.37-.2,2.116,2.116,0,0,1,.4,0c.1,0,.3-.173.37-.149a.5.5,0,0,1,.272.074c.074.025.371-.173.445-.173.049,0,.247,0,.222.223a8.637,8.637,0,0,1-.4,1.26,6.264,6.264,0,0,1-.272.593,3.86,3.86,0,0,1-.4.692c-.593.964-1.137.766-2.3,1.285a5.14,5.14,0,0,0-1.409.865l-.222-.148a4.888,4.888,0,0,1,1.285-.816,9.384,9.384,0,0,0,2.447-1.434c0-.049-.025-.074-.025-.1-.321.2-.568.346-.716.42-1.31.667-1.755.816-2.349,1.112a10.2,10.2,0,0,0-.964.593l-.222-.148a5.143,5.143,0,0,1,1.013-.643c.568-.3,1.063-.544,2.472-1.359.124-.074.84-.519,1.359-.89.025-.049.025-.1.05-.148-.494.3-2.051,1.112-2.373,1.285-1.31.667-1.26.618-1.829.915a8.342,8.342,0,0,0-1.013.618,1.45,1.45,0,0,1-.2-.173,10.56,10.56,0,0,1,1.013-.643c.593-.3.667-.371,1.977-1.038a27.086,27.086,0,0,0,2.448-1.508.189.189,0,0,0,.024-.1c-.642.346-2.5,1.31-2.818,1.483-1.31.667-1.458.717-2.051,1.013a5.59,5.59,0,0,0-.89.544l-.149-.148a8.4,8.4,0,0,1,1.063-.717c.593-.321.692-.371,2-1.038.124-.05.742-.4,1.384-.791.173-.1.371-.222.544-.321.123-.074.222-.2.321-.247l-.049-.025a5.55,5.55,0,0,0-.742.346,20.364,20.364,0,0,1-1.829.915c-1.31.667-1.458.742-2.027,1.013a10.338,10.338,0,0,0-.939.593.923.923,0,0,0-.173-.148,5.409,5.409,0,0,1,1.112-.717c.569-.3.692-.346,2-1.014.247-.124.445-.247.618-.346a10.359,10.359,0,0,0,1.138-.667Zm-4.4-.321a12.654,12.654,0,0,1,3.633.519c-.247.173-.568.346-.964.568-1.483.742-1.681.791-2.324,1.137a6.06,6.06,0,0,0-1.014.618.024.024,0,0,1-.025-.025,3.245,3.245,0,0,0-.445-.47,6.109,6.109,0,0,0-.643-.272,4.379,4.379,0,0,0-.593-.3,2.358,2.358,0,0,0-.667-.074,1.84,1.84,0,0,0-.593-.1c-.124.025-.346.124-.494.148a5.258,5.258,0,0,0-.569-.049c-.148.025-.346.2-.593.247-.173.025-.346,0-.47.025a5.5,5.5,0,0,0-.519.3c-.124.049-.42.074-.4.321.025.223.494.272.494.272a14.474,14.474,0,0,1,4.128,1.334,14.388,14.388,0,0,0-.84,1.187,4.751,4.751,0,0,0-.494-.124c-.222-.025-.445.1-.593.074a2.91,2.91,0,0,0-.667-.025,4.465,4.465,0,0,0-.519.2c-.124.05-.321-.025-.593.074-.124.025-.346.247-.47.321a1.383,1.383,0,0,0-.47.173c-.124.074-.124.2-.346.346-.173.1-.3.049-.445.222-.1.074-.124.223-.371.42-.346.272-.3.494-.272.569.1.223.618,0,.618,0a15.018,15.018,0,0,1,3.782-.692c-.519,1.088-.989,2.126-1.236,2.793a4.009,4.009,0,0,1-.148.42h-.05c-.124-.1-.124-.272-.05-.643a7.121,7.121,0,0,1,.47-1.31h-.124c-.1.2-.4.741-.47.89-.1.2-.148.272-.371.741-.05.1-.173.321-.3.321-.1,0-.2-.074-.2-.148a.4.4,0,0,1,.1-.173,5.52,5.52,0,0,0,.519-1.063h-.124A2.931,2.931,0,0,1,50.9,60.61a2.849,2.849,0,0,1-1.112-.272,4.812,4.812,0,0,1-1.8.346,4.362,4.362,0,0,1-1.508-.222A12.621,12.621,0,0,1,58.979,50.081Z" transform="translate(-35.274 -49.414)" fill="#222426" fill-rule="evenodd"/></g></svg>