<svg xmlns="http://www.w3.org/2000/svg" width="16.092" height="15.618" viewBox="0 0 16.092 15.618"><g transform="translate(-7 -7)"><path d="M22.605,19.6a2.514,2.514,0,0,1,2.014-1.1,2.473,2.473,0,0,1,2.011,1.09,2.473,2.473,0,0,1,2.011-1.09,2.387,2.387,0,0,1,1.316.379,2.648,2.648,0,0,1,.727.711.473.473,0,1,1-.775.543,1.477,1.477,0,0,0-1.268-.687,1.825,1.825,0,0,0-1.582,1.27l-.43.93-.43-.93a1.824,1.824,0,0,0-1.582-1.27,1.572,1.572,0,0,0-1.253.712,3.03,3.03,0,0,0-.553,1.774,3.736,3.736,0,0,0,.153,1.05,4.267,4.267,0,0,0,.174.483,7.6,7.6,0,0,0,2.394,2.722.473.473,0,1,1-.581.747c-.153-.119-.317-.25-.487-.392a7.682,7.682,0,0,1-2.2-2.706,5.216,5.216,0,0,1-.212-.59,4.683,4.683,0,0,1-.191-1.315A3.974,3.974,0,0,1,22.605,19.6Z" transform="translate(-7.831 -6.057)" fill-rule="evenodd"/><path d="M14.191,10.219l.792,1.514.918-1.514c.7-1.471,1.71-2.272,2.917-2.272a2.917,2.917,0,0,1,2.311,1.272,5.3,5.3,0,0,1,1.017,3.167q0,.219-.017.436a2.648,2.648,0,0,1,.727.711.471.471,0,0,1,.085.245,5.484,5.484,0,0,0,.152-1.392c0-2.794-1.8-5.386-4.274-5.386a3.878,3.878,0,0,0-3.212,1.842,6.792,6.792,0,0,0-.559.97,6.8,6.8,0,0,0-.559-.97A3.878,3.878,0,0,0,11.274,7C8.8,7,7,9.591,7,12.386a7.453,7.453,0,0,0,.322,2.152,8.471,8.471,0,0,0,.361.976c1.943,4.414,7.363,7.1,7.363,7.1a21.371,21.371,0,0,0,2.6-1.7.473.473,0,0,1-.528-.036c-.153-.119-.317-.25-.487-.392-.306.22-.592.414-.849.582-.3.195-.555.352-.752.469-.109-.062-.237-.135-.38-.221a20.945,20.945,0,0,1-1.985-1.346,13.209,13.209,0,0,1-4.12-4.837,7.529,7.529,0,0,1-.321-.867,6.507,6.507,0,0,1-.282-1.88A5.3,5.3,0,0,1,8.964,9.219a2.917,2.917,0,0,1,2.311-1.272C12.481,7.947,13.491,8.747,14.191,10.219Z"/><path d="M35.5,25.1a.536.536,0,0,1,.529.544,4.944,4.944,0,0,1-1.7,3.692,6.106,6.106,0,0,1-1.124.8c-.153.084-.282.147-.375.188l-.111.048-.033.013-.01,0h-.005a.536.536,0,0,1-.38-1h0l.017-.007.078-.034c.07-.031.173-.081.3-.15a5.035,5.035,0,0,0,.925-.656,3.873,3.873,0,0,0,1.343-2.909A.536.536,0,0,1,35.5,25.1Z" transform="translate(-13.141 -9.534)"/></g></svg>