<svg xmlns="http://www.w3.org/2000/svg" width="52.221" height="35.911" viewBox="0 0 52.221 35.911"><path d="M-39.782-124.649c14.392-1.234,21.793-9.732,21.793-21.656,0-10.28-6.3-14.255-13.021-14.255-7.127,0-10.691,4.523-10.691,9.183s2.878,8.087,8.224,8.087c3.29,0,4.8,1.234,4.8,4.66,0,5.62-5.345,8.361-12.61,10.417Zm28.509,0c14.392-1.234,21.793-9.732,21.793-21.656,0-10.28-6.3-14.255-13.021-14.255-7.127,0-10.691,4.523-10.691,9.183s2.878,8.087,8.224,8.087c3.29,0,4.8,1.234,4.8,4.66,0,5.62-5.345,8.361-12.61,10.417Z" transform="translate(41.701 160.56)" fill="#afb4af"/></svg>