<svg xmlns="http://www.w3.org/2000/svg" width="65.254" height="44.873" viewBox="0 0 65.254 44.873"><defs><style>.a{fill:#222426;}</style></defs><path class="a" d="M21.155-160.56C3.172-159.019-6.077-148.4-6.077-133.5c0,12.845,7.878,17.812,16.271,17.812,8.906,0,13.359-5.652,13.359-11.475s-3.6-10.1-10.276-10.1c-4.11,0-5.994-1.541-5.994-5.823,0-7.022,6.68-10.447,15.757-13.016Zm-35.624,0C-32.452-159.019-41.7-148.4-41.7-133.5c0,12.845,7.878,17.812,16.271,17.812,8.906,0,13.359-5.652,13.359-11.475s-3.6-10.1-10.276-10.1c-4.11,0-5.994-1.541-5.994-5.823,0-7.022,6.68-10.447,15.757-13.016Z" transform="translate(41.701 160.56)"/></svg>