<svg xmlns="http://www.w3.org/2000/svg" width="45.562" height="45.562" viewBox="0 0 45.562 45.562"><g transform="translate(5.462 5)"><path d="M9.941,0h25.68a9.941,9.941,0,0,1,9.941,9.941v25.68a9.941,9.941,0,0,1-9.941,9.941H9.941A9.941,9.941,0,0,1,0,35.621V9.941A9.941,9.941,0,0,1,9.941,0Z" transform="translate(-5.462 -5)" fill="#222426"/><path d="M204.773-752.429a2.656,2.656,0,0,1-1.966-.819,2.717,2.717,0,0,1-.807-1.979,2.668,2.668,0,0,1,.812-1.966,2.692,2.692,0,0,1,1.971-.807,2.692,2.692,0,0,1,1.974.812,2.68,2.68,0,0,1,.814,1.971,2.68,2.68,0,0,1-.819,1.974A2.7,2.7,0,0,1,204.773-752.429Zm.006-1.626a1.124,1.124,0,0,0,.825-.34,1.124,1.124,0,0,0,.34-.825,1.1,1.1,0,0,0-.34-.819,1.134,1.134,0,0,0-.825-.334,1.11,1.11,0,0,0-.819.336,1.116,1.116,0,0,0-.334.817,1.13,1.13,0,0,0,.336.825A1.106,1.106,0,0,0,204.78-754.055Zm7.935,9.553a2.692,2.692,0,0,1-1.974-.812,2.68,2.68,0,0,1-.814-1.971,2.68,2.68,0,0,1,.819-1.974,2.7,2.7,0,0,1,1.979-.814,2.656,2.656,0,0,1,1.966.819,2.716,2.716,0,0,1,.807,1.979,2.668,2.668,0,0,1-.812,1.966A2.693,2.693,0,0,1,212.714-744.5Zm0-1.627a1.11,1.11,0,0,0,.819-.336,1.116,1.116,0,0,0,.334-.817,1.13,1.13,0,0,0-.336-.825,1.106,1.106,0,0,0-.817-.34,1.124,1.124,0,0,0-.825.34,1.124,1.124,0,0,0-.34.825,1.1,1.1,0,0,0,.34.819A1.134,1.134,0,0,0,212.718-746.129Zm-9.565,1.627L202-745.656l12.332-12.32,1.153,1.153Z" transform="translate(-191.43 769.032)" fill="#fff"/></g></svg>